<svg id="Layer_1" data-name="Layer 1" xmlns="http://www.w3.org/2000/svg" viewBox="0 0 1188 900"><defs><style>.cls-1{fill:#fff;}.cls-2{fill:#006837;}.cls-3{fill:#2e3192;}.cls-4{fill:#93278f;}.cls-5{fill:#ff931e;}.cls-6{fill:none;}.cls-7{fill:#ff0;}</style></defs><title>IISS Final logo</title><rect class="cls-1" width="1188" height="900"/><path class="cls-2" d="M594,712.49A262.44,262.44,0,1,1,835.83,347.8h0A262.43,262.43,0,0,1,594,712.49Zm0-518.39A255.75,255.75,0,1,0,829.76,350.37h0A255.75,255.75,0,0,0,594,194.1Zm0,448.37A192.46,192.46,0,1,1,730.1,586.1,191.2,191.2,0,0,1,594,642.47Zm0-378.35c-102.49,0-185.88,83.39-185.88,185.88S491.51,635.88,594,635.88,779.88,552.49,779.88,450,696.49,264.12,594,264.12Z"/><path class="cls-3" d="M384.21,457.48l-26.87.67-.1-4.26,26.86-.67Z"/><path class="cls-3" d="M369.48,436.39l-11.38-8.34.31-5.17h.19l15,11.59,11,.66-.26,4.29-11-.66-16.26,9.41h-.19l.3-5.1Z"/><path class="cls-3" d="M383,405.08l-2.53,14.33,5.11,3.47-.79,4.5-24.36-16.55.81-4.61L389.81,399l-.8,4.5Zm-17.71,4.24,11.6,7.82,2-11.19Z"/><path class="cls-3" d="M391.05,376.85l-4.47,13.84,4.59,4.15-1.4,4.34L367.9,379.46l1.44-4.46,29.27-3.21-1.4,4.34Zm-18.12,1.77L383.35,388l3.49-10.82Z"/><path class="cls-3" d="M400.93,349.14l-17.22-8.31,1.87-3.87,24.21,11.67-1.42,2.94-23.71,5.49,17.09,8.24-1.89,3.91-24.21-11.68,1.44-3Z"/><path class="cls-3" d="M418,335.56l-22.37-14.9,2.36-3.55L420.35,332Z"/><path class="cls-3" d="M409.5,307.81,404,314.75,401,312.36l13.58-17.27,3.05,2.4-5.44,6.91,18.08,14.22L427.58,322Z"/><path class="cls-3" d="M441,277a6.4,6.4,0,0,0-3.48.3,10,10,0,0,0-3.41,2.07,8.28,8.28,0,0,0-2.52,3.87,3.34,3.34,0,0,0,.77,3.35,2.69,2.69,0,0,0,3,.73,17.33,17.33,0,0,0,4.41-2.4,31.66,31.66,0,0,1,3.52-2.19,15.53,15.53,0,0,1,3.36-1.3,6.28,6.28,0,0,1,3.52.07,7.55,7.55,0,0,1,3.16,2.12,7,7,0,0,1,2.07,4.64,9.16,9.16,0,0,1-1.11,4.76,17.43,17.43,0,0,1-3.4,4.26q-6,5.65-12.6,3.46l.88-3.78q4.92,1.44,9.12-2.51a12.35,12.35,0,0,0,2.09-2.48,5.49,5.49,0,0,0,.85-2.77,3.55,3.55,0,0,0-1-2.64,3.2,3.2,0,0,0-3.39-.95,14.67,14.67,0,0,0-4.64,2.43c-1,.73-1.9,1.32-2.68,1.78a20.81,20.81,0,0,1-2.63,1.26,7.74,7.74,0,0,1-2.67.6,6.15,6.15,0,0,1-2.52-.5,6.85,6.85,0,0,1-2.45-1.73,6.72,6.72,0,0,1-1.61-6.65,13.34,13.34,0,0,1,1.5-3.23,15.53,15.53,0,0,1,2.39-2.84q5.24-4.92,10.41-3.55Z"/><path class="cls-3" d="M466.08,254.78a14.59,14.59,0,0,1,8.7,6,16,16,0,0,1,2.36,4.75,14.09,14.09,0,0,1,.57,5.06,11.17,11.17,0,0,1-1.7,5,15.33,15.33,0,0,1-4.26,4.46,15.13,15.13,0,0,1-5.61,2.6,11.4,11.4,0,0,1-5.33,0,14.15,14.15,0,0,1-4.59-2.1,15.33,15.33,0,0,1-3.72-3.69,13.84,13.84,0,0,1-2.77-10.47,13.33,13.33,0,0,1,5.75-9Q460.79,253.55,466.08,254.78Zm-7.54,22.14a10.32,10.32,0,0,0,3.19,1.57,7.77,7.77,0,0,0,3.76.13,9.93,9.93,0,0,0,3.95-1.77q3.82-2.76,4.11-6.45a10.54,10.54,0,0,0-2.18-7.1,12.4,12.4,0,0,0-3.6-3.38,8.91,8.91,0,0,0-4.76-1.23,9.19,9.19,0,0,0-5.24,1.82,8.88,8.88,0,0,0-4.06,6.42,10.7,10.7,0,0,0,2.27,7.45A12.32,12.32,0,0,0,458.54,276.92Z"/><path class="cls-3" d="M477.26,243.92l11,20.07,12.43-6.81,1.92,3.5-16.2,8.87L473.49,246Z"/><path class="cls-3" d="M515.75,226.21l5.89,14.55q2.15,5.31.23,9.37a11.24,11.24,0,0,1-6.72,5.81,11.44,11.44,0,0,1-8.53.06q-4.06-1.63-6.12-6.68l-5.89-14.55,3.95-1.6,5.89,14.55a7.83,7.83,0,0,0,3.84,4.46,6.86,6.86,0,0,0,5.38.09,6.68,6.68,0,0,0,4.28-3.74,7.82,7.82,0,0,0-.26-6.17l-5.89-14.55Z"/><path class="cls-3" d="M531.13,225.67,522.6,228l-1-3.74,21.21-5.72,1,3.74-8.49,2.29,6,22.21-4.19,1.13Z"/><path class="cls-3" d="M553.3,244l-4.91-26.42,4.19-.78,4.91,26.42Z"/><path class="cls-3" d="M583.64,216.86a14.56,14.56,0,0,1,4.41,9.57,15.75,15.75,0,0,1-.4,5.29,14.16,14.16,0,0,1-2.1,4.64,11.19,11.19,0,0,1-4,3.45,15.35,15.35,0,0,1-5.94,1.65,14.81,14.81,0,0,1-6.14-.64,11.38,11.38,0,0,1-4.58-2.74,14.15,14.15,0,0,1-2.86-4.16,15,15,0,0,1-1.31-5.07,13.87,13.87,0,0,1,3-10.41,13.3,13.3,0,0,1,9.56-4.82Q579.73,213.1,583.64,216.86ZM565.83,232a10.22,10.22,0,0,0,1.93,3,7.78,7.78,0,0,0,3.17,2,10,10,0,0,0,4.3.5q4.69-.42,6.83-3.43a10.55,10.55,0,0,0,1.75-7.22,12.3,12.3,0,0,0-1.35-4.74,8.81,8.81,0,0,0-3.47-3.49,9.17,9.17,0,0,0-5.43-1.13,8.92,8.92,0,0,0-6.77,3.44,10.69,10.69,0,0,0-1.87,7.56A12.56,12.56,0,0,0,565.83,232Z"/><path class="cls-3" d="M612.37,233l1-19.09,4.29.22L616.27,241l-3.26-.17-14.25-19.72-1,18.94-4.33-.22L594.83,213l3.3.16Z"/><path class="cls-3" d="M641.64,224a6.4,6.4,0,0,0-2.32-2.62,9.91,9.91,0,0,0-3.69-1.5,8.36,8.36,0,0,0-4.61.28,3.4,3.4,0,0,0-2.23,2.63A2.69,2.69,0,0,0,630,225.6a17.37,17.37,0,0,0,4.56,2.11,35.17,35.17,0,0,1,3.86,1.51,15.59,15.59,0,0,1,3.05,1.93,6.17,6.17,0,0,1,2,2.86,7.48,7.48,0,0,1,.2,3.8,7.05,7.05,0,0,1-2.49,4.43,9.13,9.13,0,0,1-4.49,1.95,17.41,17.41,0,0,1-5.44-.18q-8.13-1.45-10.3-8l3.55-1.55q1.8,4.82,7.46,5.83a13,13,0,0,0,3.24.19,5.4,5.4,0,0,0,2.73-1,3.54,3.54,0,0,0,1.51-2.4,3.2,3.2,0,0,0-1.27-3.28,14.71,14.71,0,0,0-4.72-2.27c-1.18-.37-2.19-.74-3-1.09a20.24,20.24,0,0,1-2.58-1.36,7.63,7.63,0,0,1-2.08-1.78,6.34,6.34,0,0,1-1.11-2.32,7,7,0,0,1-.07-3,6.68,6.68,0,0,1,4.38-5.26,12.68,12.68,0,0,1,3.48-.72,15.57,15.57,0,0,1,3.71.21q7.07,1.27,9.06,6.23Z"/><path class="cls-3" d="M673.51,249.46l-13.69-4.91L655.53,249l-4.3-1.54,20.41-21.24,4.41,1.58,2.28,29.37-4.3-1.54Zm-1.2-18.17-9.66,10.12,10.7,3.83Z"/><path class="cls-3" d="M700.89,260.21l8.85-16.94,3.81,2-12.44,23.82-2.89-1.51-4.73-23.86-8.78,16.81-3.84-2,12.43-23.82,2.93,1.52Z"/><path class="cls-3" d="M730,256.12a15,15,0,0,1,4.2,4.33,11.06,11.06,0,0,1,1.71,4.9,14.06,14.06,0,0,1-.44,4.84,14.81,14.81,0,0,1-2.1,4.49,14.33,14.33,0,0,1-3.48,3.67,14,14,0,0,1-4.48,2.17,11.11,11.11,0,0,1-5.3.08,15.14,15.14,0,0,1-5.63-2.55l-8.3-5.87,15.52-21.94Zm-18,15.13,4.83,3.42c2.5,1.77,4.94,2.34,7.3,1.71a9.93,9.93,0,0,0,5.74-4.19,11.36,11.36,0,0,0,1.71-4.15,7.83,7.83,0,0,0-.56-4.49,9.5,9.5,0,0,0-3.44-4.08l-4.83-3.42Z"/><path class="cls-3" d="M761.81,291.35a6.35,6.35,0,0,0-.41-3.47,9.88,9.88,0,0,0-2.18-3.34,8.3,8.3,0,0,0-4-2.4A3.35,3.35,0,0,0,752,283a2.68,2.68,0,0,0-.64,3,17.3,17.3,0,0,0,2.55,4.32,35.72,35.72,0,0,1,2.31,3.45,15.7,15.7,0,0,1,1.4,3.32,6.21,6.21,0,0,1,0,3.52,7.45,7.45,0,0,1-2,3.23,7.06,7.06,0,0,1-4.57,2.22,9.06,9.06,0,0,1-4.8-1,17.26,17.26,0,0,1-4.37-3.25Q736,296,738,289.4l3.8.75q-1.26,5,2.81,9a12.35,12.35,0,0,0,2.55,2,5.43,5.43,0,0,0,2.8.76,3.52,3.52,0,0,0,2.6-1.12,3.2,3.2,0,0,0,.84-3.42,14.92,14.92,0,0,0-2.58-4.55,32.06,32.06,0,0,1-1.86-2.62,20.16,20.16,0,0,1-1.35-2.59,7.87,7.87,0,0,1-.7-2.65,6.54,6.54,0,0,1,.42-2.54A7.15,7.15,0,0,1,749,280a6.83,6.83,0,0,1,3.15-1.85,6.72,6.72,0,0,1,3.45,0,12.68,12.68,0,0,1,3.27,1.39,15,15,0,0,1,2.92,2.29q5.09,5.07,3.9,10.29Z"/><path class="cls-3" d="M765.15,328l-12.33-15.55,21.06-16.7,12.26,15.47-3.28,2.59-9.59-12.09-5.68,4.51,9.2,11.61-3.13,2.48-9.2-11.61-5.66,4.48,9.66,12.18Z"/><path class="cls-3" d="M780,351.68l-2.62-4.29L781,335.57l-3-4.85-7.93,4.84-2.24-3.68,23-14q1.08,1.77,3.24,5.35l3.25,5.35a9.29,9.29,0,0,1,1.42,7.3,8.59,8.59,0,0,1-4,5.37,8.75,8.75,0,0,1-5.63,1.35,8.06,8.06,0,0,1-5.31-3.21l-3.46,11.5Zm9.76-28.08-8.33,5.08,4.26,7a5,5,0,0,0,3.18,2.55,4.79,4.79,0,0,0,3.6-.66,5.08,5.08,0,0,0,2.28-2.93,4.81,4.81,0,0,0-.71-4Z"/><path class="cls-3" d="M786.32,366l-1.84-4.1,20-21.26,2,4.41-16.4,16.77,23.45-1.12,2,4.37Z"/><path class="cls-3" d="M791.73,379.31l25.39-8.79,1.39,4-25.39,8.79Z"/><path class="cls-3" d="M804.05,410.26a13.76,13.76,0,0,1-6.32-8.83,16.19,16.19,0,0,1-.41-6.38,11.77,11.77,0,0,1,1.94-5.08,13.55,13.55,0,0,1,3.63-3.53,15.14,15.14,0,0,1,4.78-2.09,15.4,15.4,0,0,1,5.26-.4,14.5,14.5,0,0,1,5,1.41,11.59,11.59,0,0,1,4.19,3.56,15.77,15.77,0,0,1,2.67,5.76,13.37,13.37,0,0,1-1.57,10.52l-3.38-2.12a9.48,9.48,0,0,0,1-7.41c-.77-3.11-2.32-5.25-4.65-6.44a10.19,10.19,0,0,0-7.43-.75,10.34,10.34,0,0,0-6.11,4.13c-1.45,2.08-1.78,4.69-1,7.85a10.26,10.26,0,0,0,1.68,3.54,9.65,9.65,0,0,0,2.88,2.68Z"/><path class="cls-3" d="M803.61,434.38l-2.45-19.7,26.67-3.3L830.26,431l-4.15.51-1.9-15.31-7.2.89,1.82,14.71-4,.49-1.82-14.71-7.16.89,1.91,15.43Z"/><path class="cls-3" d="M824.94,454.81a6.29,6.29,0,0,0,2.12-2.78,9.88,9.88,0,0,0,.76-3.91,8.26,8.26,0,0,0-1.16-4.47,3.37,3.37,0,0,0-3-1.68,2.69,2.69,0,0,0-2.54,1.71,17.21,17.21,0,0,0-1.19,4.88,33.41,33.41,0,0,1-.74,4.08,15.67,15.67,0,0,1-1.31,3.36,6.15,6.15,0,0,1-2.42,2.55,7.47,7.47,0,0,1-3.69.93,7,7,0,0,1-4.82-1.6,9,9,0,0,1-2.77-4,17.22,17.22,0,0,1-.88-5.38q-.13-8.26,5.92-11.66l2.2,3.19q-4.36,2.69-4.28,8.44a12.78,12.78,0,0,0,.44,3.22,5.38,5.38,0,0,0,1.48,2.49,3.55,3.55,0,0,0,2.64,1,3.22,3.22,0,0,0,3-1.88,15,15,0,0,0,1.32-5.07,27.82,27.82,0,0,1,.49-3.17,20.69,20.69,0,0,1,.83-2.8,7.78,7.78,0,0,1,1.35-2.38,6.35,6.35,0,0,1,2.07-1.53,6.78,6.78,0,0,1,2.92-.64,6.63,6.63,0,0,1,3.55.86,6.79,6.79,0,0,1,2.46,2.42,12.85,12.85,0,0,1,1.37,3.28,14.79,14.79,0,0,1,.51,3.68q.11,7.17-4.37,10.09Z"/><path class="cls-4" d="M384.09,497.21l-1.25-5.43,2-.45,3,13.22-2,.45-1.25-5.45-15.9,3.65-.54-2.34Z"/><path class="cls-4" d="M388.07,506.19a23.75,23.75,0,0,1,1.66,4.24c.73,2.42.75,4.11.09,5.5a4.57,4.57,0,0,1-2.92,2.38,4.82,4.82,0,0,1-5.47-2l-.08,0c-.06,1.5-1.07,2.68-2.77,3.64a28.51,28.51,0,0,0-4.41,2.8l-.7-2.35a24.24,24.24,0,0,1,3.84-2.42c2.27-1.25,2.9-2.46,2.36-4.54l-.64-2.13-7.6,2.27-.68-2.27Zm-7.32,4.65.69,2.32c.73,2.42,2.52,3.56,4.52,3,2.27-.67,2.77-2.61,2.08-5a9.84,9.84,0,0,0-.88-2.18Z"/><path class="cls-4" d="M381.79,527l-6.06.27-.87-2.29,19.34-.68,1,2.67L380.3,539.29l-.9-2.37,4.7-3.87Zm3.86,5,4.3-3.55c1-.81,1.89-1.45,2.79-2.08l0,0c-1.12.13-2.26.25-3.43.31l-5.59.21Z"/><path class="cls-4" d="M381.75,542.6l16.56-7.83,1.11,2.33-5.87,9.27a51.22,51.22,0,0,1-4,5.52l0,0c2.12-1.24,4.11-2.24,6.69-3.46l6.93-3.28,1,2L387.63,555l-1-2.16,5.92-9.24a56,56,0,0,1,4.06-5.71l-.06-.06c-2,1.11-4,2.1-6.75,3.4l-7.08,3.35Z"/><path class="cls-4" d="M392.34,557.72a8.35,8.35,0,0,0,1,4.28c1.19,2.11,3,2.71,4.61,1.81s1.86-2.18,1.47-4.8c-.54-3.12-.1-5.5,2.15-6.76,2.49-1.41,5.5-.39,7.25,2.72a8.2,8.2,0,0,1,1.2,4l-2,.38a7.32,7.32,0,0,0-.95-3.45c-1.23-2.18-3-2.28-4.09-1.66-1.49.84-1.68,2.22-1.29,4.91.48,3.28,0,5.39-2.39,6.71s-5.62.77-7.74-3a9.41,9.41,0,0,1-1.28-4.64Z"/><path class="cls-4" d="M412.43,561.69l5.36,8.29-1.67,1.07-4.07-6.3-5.11,3.31,3.76,5.82-1.64,1.06-3.77-5.82-7,4.5-1.28-2Z"/><path class="cls-4" d="M421.67,590.29c-5,3.8-10,2.76-12.83-1s-2-8.84,2.45-12.18c4.65-3.5,9.86-2.91,12.81,1S426,587,421.67,590.29Zm-8.81-11.17c-3.12,2.36-4.64,6.17-2.4,9.14s6.29,2.61,9.61.1c2.91-2.19,4.8-6,2.42-9.15S416.07,576.7,412.86,579.12Z"/><path class="cls-4" d="M430.35,587a25.6,25.6,0,0,1,3.28,3.16c1.67,1.9,2.4,3.43,2.38,5a4.58,4.58,0,0,1-1.66,3.38,4.82,4.82,0,0,1-5.79.49l-.06.06c.57,1.38.15,2.88-1,4.46a28.57,28.57,0,0,0-2.83,4.38L423.05,606a23.26,23.26,0,0,1,2.48-3.81c1.53-2.08,1.6-3.44.24-5.11l-1.47-1.67-6,5.24-1.56-1.77Zm-4.7,7.29,1.59,1.82c1.68,1.9,3.78,2.18,5.35.8,1.77-1.56,1.41-3.53-.22-5.42a9.61,9.61,0,0,0-1.71-1.62Z"/><path class="cls-4" d="M443.85,615.5c1.67-1.94,3.68-4.26,5.29-5.89l-.06-.06c-1.94,1.12-4.07,2.23-6.49,3.41l-8.5,4.16-1.29-1.24,3.92-8.34c1.16-2.47,2.27-4.68,3.41-6.6l0,0c-1.62,1.61-3.85,3.72-5.87,5.59l-5.81,5.32-1.62-1.57,13.63-12.31,2.17,2.09-3.89,8.56c-1,2.15-2,4-2.95,5.72l.06.06c1.61-1,3.48-2,5.67-3.11l8.49-4.12,2.18,2.1-11.89,14-1.66-1.61Z"/><path class="cls-4" d="M457.33,613.49l-11.84,14-1.8-1.53,11.83-14Z"/><path class="cls-4" d="M449.13,630.6,460.18,616l2.06,1.56-.9,10.94a51.22,51.22,0,0,1-1,6.73h.06c1.3-2.08,2.6-3.89,4.32-6.17l4.63-6.12,1.77,1.35-11,14.61-1.91-1.44,1-10.92a58,58,0,0,1,1-6.95l-.08,0c-1.29,1.92-2.57,3.71-4.41,6.14l-4.72,6.24Z"/><path class="cls-4" d="M476.47,648.57a17,17,0,0,1-5.28-2.17,8.6,8.6,0,0,1-3-12.85c3-4.6,8.27-6,13.45-2.66a11.25,11.25,0,0,1,3.4,3.17l-1.51,1.32a9.61,9.61,0,0,0-3-2.84c-3.76-2.4-7.7-1.62-10.17,2.26s-1.61,7.74,2,10a7.54,7.54,0,0,0,2.93,1.28l2.93-4.61-3.14-2,1-1.6,5.09,3.24Z"/><path class="cls-4" d="M494.75,640.89l-4.95-2.55.92-1.79,12.06,6.2-.91,1.79-5-2.56-7.45,14.51-2.13-1.09Z"/><path class="cls-4" d="M506.37,644.35l-3,7,8.15,3.48,3-7,2.2.94-7.19,16.85-2.2-.94,3.37-7.9-8.15-3.48-3.37,7.9-2.17-.93,7.19-16.85Z"/><path class="cls-4" d="M526,662.29,519.21,660l-2.15,6.25,7.5,2.59-.64,1.87-9.75-3.36,6-17.32,9.35,3.22-.64,1.88-7.12-2.45-1.89,5.47,6.73,2.32Z"/><path class="cls-4" d="M535.5,674.05l-.41-18.9,2.44.56,0,9.52c0,2.35,0,4.68-.09,6.48h0c.7-1.71,1.74-3.7,2.88-5.86l4.47-8.45,2.41.55.08,9.56c0,2.24,0,4.46-.17,6.41h.06c.82-1.88,1.78-3.75,2.85-5.84l4.43-8.47,2.36.55-9.18,16.68-2.41-.55-.1-9.82a54.51,54.51,0,0,1,.18-6.09l-.06,0a55.27,55.27,0,0,1-2.72,5.51l-4.69,8.71Z"/><path class="cls-4" d="M572.91,671.23c-.83,6.25-5.07,9.06-9.7,8.45-4.8-.63-7.68-4.8-7-10.29.76-5.77,4.84-9.07,9.69-8.43S573.62,665.84,572.91,671.23Zm-14.14-1.57c-.51,3.88,1.13,7.64,4.83,8.13s6.27-2.66,6.81-6.78c.48-3.61-.91-7.64-4.82-8.15S559.3,665.67,558.77,669.66Z"/><path class="cls-4" d="M576.66,662.71a24.55,24.55,0,0,1,4.56-.13c2.52.14,4.12.69,5.21,1.79a4.57,4.57,0,0,1,1.24,3.55A4.83,4.83,0,0,1,584,672.4v.08c1.38.57,2.15,1.92,2.48,3.84a28.75,28.75,0,0,0,1.13,5.1l-2.45-.14a24.08,24.08,0,0,1-1-4.43c-.4-2.56-1.33-3.56-3.47-3.76l-2.22-.13-.45,7.93-2.36-.14Zm1.9,8.46,2.41.14c2.53.14,4.21-1.16,4.32-3.25.14-2.36-1.52-3.49-4-3.65a10,10,0,0,0-2.35.08Z"/><path class="cls-4" d="M590.8,663.16l2.37,0,.26,16.33,7.83-.12,0,2-10.19.17Z"/><path class="cls-4" d="M603.25,663.25a33.15,33.15,0,0,1,5-.76c3.39-.26,5.86.35,7.57,1.72a8.43,8.43,0,0,1,3.07,6.37,9.67,9.67,0,0,1-2.09,7.3c-1.58,1.84-4.33,3-7.89,3.24a38.54,38.54,0,0,1-4.3.1Zm3.58,16a15.32,15.32,0,0,0,2.39-.05c5-.37,7.57-3.4,7.2-8.33-.29-4.32-2.94-6.87-7.93-6.5a13.64,13.64,0,0,0-2.75.45Z"/><path class="cls-4" d="M629,662.27l-5.49.93-.34-2L636.58,659l.34,2-5.52.94L634.12,678l-2.36.4Z"/><path class="cls-4" d="M640.4,658.07l1.82,7.45,8.61-2.1L649,656l2.33-.57,4.34,17.8-2.32.57-2-8.35-8.61,2.11,2,8.34-2.3.56-4.35-17.8Z"/><path class="cls-4" d="M654.87,654.6a25.64,25.64,0,0,1,4.2-1.77c2.41-.78,4.1-.84,5.51-.21a4.56,4.56,0,0,1,2.44,2.87,4.81,4.81,0,0,1-1.84,5.51l0,.08c1.5,0,2.7,1,3.7,2.68a28.88,28.88,0,0,0,2.9,4.35l-2.33.76a24.75,24.75,0,0,1-2.51-3.79c-1.3-2.24-2.52-2.84-4.59-2.26l-2.12.69,2.45,7.55-2.25.73Zm4.83,7.21,2.3-.75c2.4-.78,3.5-2.59,2.86-4.59-.73-2.24-2.68-2.7-5.07-2a10,10,0,0,0-2.16.92Z"/><path class="cls-4" d="M686.17,652.26c2.4,5.83.13,10.38-4.19,12.16-4.48,1.84-9.05-.33-11.16-5.46-2.21-5.38-.32-10.28,4.21-12.14S684.1,647.23,686.17,652.26Zm-13,5.69c1.49,3.62,4.78,6,8.23,4.64s4.11-5.43,2.53-9.28c-1.38-3.37-4.59-6.16-8.24-4.66S671.61,654.23,673.14,658Z"/><path class="cls-4" d="M687.15,641.76l5,9.65c1.87,3.65,4.28,4.37,6.46,3.26,2.42-1.24,3.15-3.63,1.3-7.24l-4.94-9.65,2.13-1.09,4.87,9.51c2.57,5,1,8.41-2.55,10.22-3.34,1.71-6.84,1.09-9.43-4l-4.92-9.6Z"/><path class="cls-4" d="M721.21,642.5a17.54,17.54,0,0,1-4.26,3.82,8.61,8.61,0,0,1-12.86-2.92c-2.85-4.67-1.76-10,3.46-13.27a11.42,11.42,0,0,1,4.33-1.68l.53,1.94a9.46,9.46,0,0,0-3.86,1.46c-3.79,2.34-4.81,6.23-2.39,10.14s6.27,4.82,9.9,2.57a7.56,7.56,0,0,0,2.42-2.07l-2.87-4.65-3.17,2-1-1.62,5.14-3.17Z"/><path class="cls-4" d="M716.46,624.46l4.54,6.18,7.15-5.25-4.55-6.18,1.93-1.42,10.86,14.77L734.46,634l-5.09-6.93-7.14,5.25,5.09,6.92-1.91,1.41-10.85-14.77Z"/><path class="cls-4" d="M734.46,610.25l12,13.84-1.79,1.55-12-13.84Z"/><path class="cls-4" d="M750.1,621l-12.75-13.16,1.85-1.8,10.67,2.57a52.67,52.67,0,0,1,6.5,2l0-.06c-1.86-1.61-3.45-3.17-5.43-5.22l-5.34-5.5,1.6-1.55L760,611.4l-1.71,1.67-10.65-2.63a59.71,59.71,0,0,1-6.72-2l0,.08c1.71,1.56,3.28,3.11,5.4,5.29l5.45,5.62Z"/><path class="cls-4" d="M763.47,607.72,749.7,595.64l1.7-1.94,10.84,1.7a52,52,0,0,1,6.65,1.45v-.06c-2-1.45-3.69-2.88-5.84-4.76L757.3,587l1.47-1.67,13.77,12.08-1.57,1.8-10.83-1.76a58.8,58.8,0,0,1-6.86-1.45l0,.07c1.83,1.43,3.52,2.84,5.81,4.84l5.88,5.17Z"/><path class="cls-4" d="M777.57,575.27c5.07,3.75,5.48,8.82,2.69,12.58s-7.91,4.39-12.37,1.09c-4.67-3.47-5.58-8.64-2.67-12.57S773.2,572,777.57,575.27Zm-8.22,11.6c3.15,2.33,7.23,2.71,9.44-.28s.72-6.77-2.62-9.25c-2.93-2.16-7.12-2.9-9.46.27S766.12,584.48,769.35,586.87Z"/><path class="cls-4" d="M789.37,574.08l-18.7-4.67,1.36-2.16,9.16,2.37c2.52.65,4.77,1.26,6.85,2l0-.05c-1.53-1.56-3.08-3.44-4.67-5.4l-6-7.43,1.34-2.14,12,15.28Z"/><path class="cls-4" d="M791.14,559.92l4.16,4.42-1.16,2.15L781,552.31l1.35-2.51,19.09,3.2-1.2,2.22-6-1Zm1.22-6.16-5.49-.93c-1.25-.21-2.33-.48-3.39-.75l0,0c.83.76,1.67,1.55,2.48,2.39l3.81,4.1Z"/><path class="cls-4" d="M788.61,541.76l-2.36,5-1.82-.85,5.73-12.3,1.82.85-2.36,5.08,14.79,6.89-1,2.17Z"/><path class="cls-4" d="M791.65,529.82l16.94,7-.9,2.18-16.94-7Z"/><path class="cls-4" d="M806.71,514.5c6,2.06,7.88,6.77,6.35,11.19-1.57,4.58-6.23,6.57-11.47,4.76-5.5-1.89-7.92-6.55-6.33-11.18S801.57,512.73,806.71,514.5ZM802.36,528c3.7,1.28,7.71.42,8.92-3.1s-1.35-6.68-5.28-8c-3.45-1.18-7.66-.63-9,3.1S798.56,526.73,802.36,528Z"/><path class="cls-4" d="M816.65,513.65l-17.76-4.49.63-2.51L810,503.23a51.64,51.64,0,0,1,6.58-1.72v-.06c-2.43-.39-4.6-.89-7.37-1.59L801.72,498l.54-2.16,17.77,4.5-.59,2.32L809,506a58,58,0,0,1-6.77,1.82v.09c2.28.44,4.43.92,7.38,1.67l7.59,1.92Z"/><polygon class="cls-5" points="372.74 467.82 375.14 475.2 382.89 475.2 376.62 479.76 379.01 487.13 372.74 482.57 366.47 487.13 368.86 479.76 362.59 475.2 370.34 475.2 372.74 467.82"/><polygon class="cls-5" points="815.26 467.82 817.65 475.2 825.41 475.2 819.14 479.76 821.53 487.13 815.26 482.57 808.99 487.13 811.38 479.76 805.11 475.2 812.86 475.2 815.26 467.82"/><rect class="cls-3" x="525.3" y="528.62" width="141.67" height="19.08" rx="5.32"/><path class="cls-6" d="M555.33,498.33c41.18-5.95,83.54-23,123.84-50,5.74-3.85,12-8.25,18.08-13.19V376.35H494.67v121c1.4.37,2.83.72,4.29,1Z"/><path class="cls-6" d="M640.18,498.33h57.07V465.54q-10.31,7.68-22.28,14.87A304.54,304.54,0,0,1,640.18,498.33Z"/><path class="cls-6" d="M481.43,427.59c-8.81,9.21-14.26,17.09-17.14,24.78-3.54,9.47-3,18.8,1.58,26.27,3.2,5.25,8.65,9.93,15.59,13.55Q481.43,459.9,481.43,427.59Z"/><path class="cls-6" d="M710.84,422.55a82.52,82.52,0,0,0,11.27-15c4.48-7.81,6.06-14.5,4.82-20.46-1.8-8.61-9.72-15.88-16.57-21.05a35.48,35.48,0,0,1,.45,6.15Q710.84,397.39,710.84,422.55Z"/><path class="cls-3" d="M524,500.7c2.38,0,4.88-.05,7.45-.15a230.2,230.2,0,0,0,23.92-2.22H499A118.49,118.49,0,0,0,524,500.7Z"/><path class="cls-3" d="M697.25,498.33H640.18A315.48,315.48,0,0,1,558,521.7q68.81,0,137.62,0c11.31,0,15.19-4,15.2-15.25q0-25.93,0-51.86-6.37,5.61-13.59,11Z"/><polygon class="cls-7" points="479.39 425.53 479.39 425.53 479.39 425.53 479.39 425.53"/><path class="cls-7" d="M516.58,521.72c1.63,0,3.25,0,4.88,0H512C513.5,521.7,515,521.72,516.58,521.72Z"/><path class="cls-5" d="M741.13,382.56c-6.11-9.93-18.93-16.23-31.77-20.81,9.47,6.75,18.35,14.9,20.41,24.79,1.59,7.63-1.09,15.45-5.15,22.5a87.53,87.53,0,0,1-13.78,17.71,148.14,148.14,0,0,1-13.59,12.07c-5.26,4.15-10.81,8.09-16.46,11.88-31.72,21.28-68.71,39.15-108.72,47.63a239.82,239.82,0,0,1-40.55,5.12c-13.14.51-26.57-.15-38.91-3.71a68.2,68.2,0,0,1-11.15-4.28c-7.68-3.77-14.18-8.94-18.07-15.3-5.42-8.88-5.34-19.37-1.82-28.81s10.28-18,17.82-25.82h0c-18.26,19.05-46.93,45-32.36,70.5,5.53,9.69,16.94,16.82,29.55,20.74a92.91,92.91,0,0,0,9.26,2.34A147,147,0,0,0,512,521.67h9.5a310.33,310.33,0,0,0,152-43.76,263.21,263.21,0,0,0,23.77-16c4.73-3.6,9.28-7.34,13.59-11.23a158,158,0,0,0,22.61-25C742.9,412.52,749.49,396.18,741.13,382.56Z"/><path class="cls-3" d="M481.45,397.75h13.22V497.3l-1.25-.35a63.6,63.6,0,0,1-12-4.76q0-32.29,0-64.6l.06,0-.06-.05Q481.45,412.63,481.45,397.75Z"/><path class="cls-3" d="M710.84,422.55a135.43,135.43,0,0,1-13.6,12.55V376.35H516.71v-19.6q39.94,0,79.89,0,49.26,0,98.53,0c7.44,0,11.63,1.28,13.77,5a22.6,22.6,0,0,1,1.46,4.32,35.44,35.44,0,0,1,.45,6.14Q710.84,397.39,710.84,422.55Z"/><rect class="cls-3" x="496.33" y="376.35" width="17.16" height="17.16"/><rect class="cls-3" x="484.63" y="370.41" width="5.95" height="5.95"/><rect class="cls-3" x="474.14" y="352.29" width="9.87" height="9.87"/><rect class="cls-3" x="496.33" y="354.83" width="13.85" height="13.85"/><rect class="cls-3" x="480.75" y="382.28" width="10.9" height="10.9"/><rect class="cls-3" x="470.44" y="368.67" width="7.4" height="7.4"/><path class="cls-5" d="M533.46,410.32V437h14.35V410.32Z"/><rect class="cls-4" x="556.44" y="437.03" width="14.35" height="22.76"/><path class="cls-4" d="M613.8,445.17a14,14,0,0,1-5,11.27c-3.33,2.85-7.77,4.26-13.3,4.26q-18.39,0-18.38-14.24a28.11,28.11,0,0,1,.18-2.87l6.93-1.52a23.11,23.11,0,0,0-.81,5.48q0,9.21,10.56,9.2,8.43,0,8.44-6.63,0-4.94-10.11-8.66a29.34,29.34,0,0,1-8.26-4.43h27.26A14.16,14.16,0,0,1,613.8,445.17Z"/><rect class="cls-4" x="533.46" y="437.03" width="14.35" height="22.76"/><path class="cls-5" d="M556.44,410.32V437h14.35V410.32Z"/><path class="cls-5" d="M596,427c-6.17-2.12-9.25-4.68-9.25-7.65,0-4,2.76-5.94,8.27-5.94,7,0,10.48,2.86,10.48,8.62a16.22,16.22,0,0,1-.44,3.33l6.67-1.23q0-14.67-16.31-14.67-7.95,0-12.81,4.08a13.27,13.27,0,0,0-4.88,10.74A15.39,15.39,0,0,0,584.06,437h27.26Q607.17,430.9,596,427Z"/><path class="cls-5" d="M636.71,427c-6.16-2.12-9.23-4.68-9.23-7.65,0-4,2.75-5.94,8.26-5.94,7,0,10.48,2.86,10.48,8.62a16.22,16.22,0,0,1-.44,3.33l6.66-1.23q0-14.67-16.3-14.67-7.95,0-12.81,4.08a13.27,13.27,0,0,0-4.88,10.74A15.38,15.38,0,0,0,624.79,437h27.28Q647.92,430.9,636.71,427Z"/><path class="cls-4" d="M654.54,445.17a14,14,0,0,1-5,11.27c-3.32,2.85-7.76,4.26-13.3,4.26q-18.37,0-18.37-14.24a28.11,28.11,0,0,1,.18-2.87l6.93-1.52a23.11,23.11,0,0,0-.81,5.48q0,9.21,10.55,9.2,8.44,0,8.45-6.63,0-4.94-10.12-8.66a29.2,29.2,0,0,1-8.26-4.43h27.28A14.22,14.22,0,0,1,654.54,445.17Z"/><rect class="cls-3" x="397.57" y="334.06" width="10.45" height="3.24" transform="translate(-77.58 545.84) rotate(-63.43)"/></svg>